<?xml version="1.0" encoding="utf-8"?>
<!-- Generator: Adobe Illustrator 19.0.0, SVG Export Plug-In . SVG Version: 6.00 Build 0)  -->
<svg version="1.1" id="Capa_1" xmlns="http://www.w3.org/2000/svg" xmlns:xlink="http://www.w3.org/1999/xlink" x="0px" y="0px"
	 viewBox="0 0 204 128" style="enable-background:new 0 0 204 128;" xml:space="preserve">
<style type="text/css">
	.st0{fill:#FFFFFF;}
	.st1{fill-rule:evenodd;clip-rule:evenodd;fill:#FFFFFF;}
	.st2{font-family:'Helvetica-Light';}
	.st3{font-size:22.8818px;}
</style>
<g id="XMLID_725_">
	<g id="XMLID_768_">
		<path id="XMLID_769_" class="st0" d="M3.2,75.1v24.1H17v2.8H0V75.1H3.2z M35.5,91.6l-5.2-14.3l-6,16.5h0l-2.9,8.1h-3.3L28,75.1
			h4.4L42.5,102h-3.2L35.5,91.6L35.5,91.6z M45.3,102V88.9h3.1v0h7.1c2.4,0,4.2-0.2,5.3-0.8c1.1-0.5,1.6-2.1,1.6-4.6
			c0-1.9-0.2-3.3-0.7-4.3c-0.5-0.9-1.7-1.4-3.8-1.4c-0.2,0-0.4,0-0.7,0c-0.2,0-0.5,0-0.7,0l-4.7,0v0l-6.5,0v-2.6h11.3H58
			c0.3,0,0.5,0,0.8,0c0.9,0,1.9,0.1,2.8,0.4c1.6,0.4,2.9,1.9,3.4,3.4c0.3,0.9,0.5,1.9,0.6,2.9c0,0.3,0,0.5,0,0.8c0,0.9,0,1.9,0,2.8
			c-0.1,0.8-0.3,1.5-0.5,2.2c-0.2,0.7-0.6,1.3-1.2,1.9C63,90.5,62,91,60.9,91.2c-1.1,0.2-2.2,0.3-3.4,0.3c-0.5,0-0.9,0-1.4,0h-7.9
			V102H45.3z M81.4,90.8l-4.9-13.5l-4.9,13.5l0,0l-1.1,3.1h0l-2.9,8.1h-3.3l9.9-26.9h4.4L88.8,102h-3.2L81.4,90.8L81.4,90.8z
			 M108.1,92.9h3c0,0.4,0,0.8,0,1.3c0,0.4,0,0.8,0,1.3c0,1.9-0.5,3.5-1.4,4.7c-0.9,1.1-2.5,1.8-4.6,1.9c-1.5,0.1-2.9,0.1-4.4,0.1H97
			c-3.7-0.2-5.9-1.5-6.6-4c-0.7-2.4-1-5.1-1-7.9c0-2,0-3.9,0-5.9c0-2.5,0.4-4.6,1.4-6.2c0.9-1.6,2.8-2.6,5.6-2.8
			c0.9-0.1,1.8-0.2,2.6-0.3c0.9,0,1.8,0,2.7,0c3.6,0,6,0.5,7.2,1.5c1.1,1,1.8,3.4,2,7.1l-3,0c0-2-0.2-3.5-0.7-4.4
			c-0.5-1-1.9-1.4-4.1-1.4c-1.9,0-3.8,0-5.8,0.2c-2,0.1-3.3,0.7-3.8,1.8c-0.7,1.5-0.8,3.3-0.8,4.9l0,4.3c0,2.3,0,4.5,0.4,6.8
			c0.1,0.8,0.4,1.5,0.7,2.1c0.3,0.6,0.8,1,1.5,1.2c0.7,0.2,1.4,0.4,2.1,0.4c0.6,0,1.2,0.1,1.8,0.1c1.7,0,3.4,0,5.1-0.2
			c1.2-0.1,2.1-0.4,2.8-0.9c0.7-0.5,1-1.3,1.1-2.6c0-0.5,0-1,0-1.5C108,93.9,108.1,93.4,108.1,92.9L108.1,92.9z M136.7,75.1V102
			h-3.1V89.6h-15.9V102h-3V75.1h3V87h15.9V75.1H136.7z M140.7,89v-1.6c0-3.6,0.4-6.6,1.1-9c0.8-2.4,3.3-3.6,7.7-3.6l1.3,0
			c3.7,0,6.4,0.5,8.3,1.4c1.9,0.9,2.8,3.5,2.8,7.7c0,3.2,0,6.4-0.1,9.6c-0.1,3.3-0.8,5.6-2.1,6.9c-1.3,1.3-3.7,1.9-7.1,1.9
			c-0.4,0-0.8,0-1.2,0c-0.4,0-0.8,0-1.2,0c-3.1,0-5.4-0.5-7-1.4c-1.6-1-2.5-3.1-2.7-6.5C140.7,92.5,140.7,90.8,140.7,89L140.7,89z
			 M143.8,88.9l0,4.3c0.1,2.6,0.5,4.4,1.2,5.2c0.8,0.9,2.5,1.3,5.3,1.3c3.1,0,5.2-0.3,6.5-1c1.3-0.6,2-2.6,2.1-5.9
			c0-1.5,0-2.9,0-4.4c0-1.5,0-3,0-4.4c0-3.3-0.6-5.2-1.8-5.8c-1.2-0.6-3.2-0.9-6.1-0.9h-1c-2.4,0-4,0.4-4.8,1.1
			c-0.8,0.7-1.3,2.5-1.3,5.5L143.8,88.9z M180.5,75.1V102h-3.1V75.1H180.5z M195.2,77.9v24h-3.1v-24h-8.8v-2.9H204v2.9H195.2z"/>
	</g>
	<g id="XMLID_727_">
		<path id="XMLID_767_" class="st1" d="M120.9,20.2l3.7-1.2v-8.7c-1.2-1.3-2.5-2.6-3.9-3.7L120.9,20.2z"/>
		<path id="XMLID_766_" class="st1" d="M102.4,29.2l4.8-2.1l0.4-26.4V0.5c-1.7-0.3-3.4-0.5-5.2-0.5V29.2z"/>
		<polygon id="XMLID_765_" class="st1" points="95.5,41.9 83.1,35.4 83.1,21.4 79.6,20.3 79.6,39.8 95.5,47.9 		"/>
		<path id="XMLID_752_" class="st1" d="M90.4,12.1l0-9.8c-2.1,0.9-4.1,2-6,3.3l-0.1,0.7l-0.1,8.8L90.4,12.1z"/>
		<path id="XMLID_751_" class="st1" d="M119.9,34.8l-0.1-18.4l-7.3-3.6l-0.1-10.2V1.9c-1.1-0.4-2.3-0.8-3.5-1.1l-0.1,15l5.6,3.3
			v12.1l-11.9,6v26.4c3.2,0,6.2-0.6,9.1-1.6l-4.7-2.9l0.3-17.9L119.9,34.8z"/>
		<path id="XMLID_749_" class="st1" d="M101.1,63.5V37.2l-11.5-5.8V19.4l5.6-3.3L95,0.9l0.8-0.2c-1.5,0.3-2.9,0.7-4.3,1.2v0.9
			l-0.1,10.1l-7.1,3.6l-0.1,18.4l12.4,6.5L96.9,59l-4.7,2.9C95.1,62.9,98,63.4,101.1,63.5z"/>
		<polygon id="XMLID_743_" class="st1" points="102.4,35.8 113.2,30.5 113.2,19.8 108.8,17.2 108.3,27.9 102.4,30.5 		"/>
		<path id="XMLID_742_" class="st1" d="M79.6,19l3.6,1.2l0.2-13.9c-1.4,1.1-2.6,2.2-3.8,3.5V19z"/>
		<path id="XMLID_740_" class="st1" d="M95.9,58.4l-0.3-9.2l-17.1-8.7V11.2c-4.6,5.6-7.4,12.8-7.4,20.6c0,13.5,8.3,25.1,19.9,29.7
			L95.9,58.4z"/>
		<path id="XMLID_732_" class="st1" d="M125.7,11.5v29l-17.5,8.8l-0.3,9.3l4.9,3c11.7-4.5,20-16.2,20-29.7
			C132.8,24.1,130.1,17,125.7,11.5z"/>
		<polygon id="XMLID_731_" class="st1" points="124.6,20.2 121,21.4 121,35.4 108.3,42 108.3,48 124.6,39.8 		"/>
		<path id="XMLID_730_" class="st1" d="M96.3,0.9l0.4,26.4l4.4,1.9V0c-1.6,0-3.2,0.2-4.8,0.5V0.9z"/>
		<polygon id="XMLID_729_" class="st1" points="95.2,17.5 90.8,20 90.8,30.7 101.1,35.9 101.1,30.5 95.6,28.1 		"/>
		<path id="XMLID_728_" class="st1" d="M113.5,11.9l6.2,3.1l-0.1-8.9l0-0.4c-1.9-1.4-4-2.5-6.2-3.5L113.5,11.9z"/>
	</g>
	<text id="XMLID_726_" transform="matrix(1 0 0 1 62.5725 127.9821)" class="st0 st2 st3">Pharma</text>
</g>
</svg>
