<?xml version="1.0" encoding="utf-8"?>
<!-- Generator: Adobe Illustrator 19.0.0, SVG Export Plug-In . SVG Version: 6.00 Build 0)  -->
<svg version="1.1" id="Capa_1" xmlns="http://www.w3.org/2000/svg" xmlns:xlink="http://www.w3.org/1999/xlink" x="0px" y="0px"
	 viewBox="0 0 127.5 131.4" style="enable-background:new 0 0 127.5 131.4;" xml:space="preserve">
<style type="text/css">
	.st0{fill-rule:evenodd;clip-rule:evenodd;fill:#FFFFFF;}
</style>
<g>
	<path class="st0" d="M102.9,41.7l7.7-2.6v-18c-2.5-2.8-5.2-5.3-8.1-7.6L102.9,41.7z"/>
	<path class="st0" d="M64.7,60.4l9.9-4.3l0.9-54.6V1.1C71.9,0.4,68.3,0,64.7,0V60.4z"/>
	<polygon class="st0" points="50.4,86.7 24.8,73.2 24.8,44.3 17.5,41.9 17.5,82.3 50.4,99.1 	"/>
	<path class="st0" d="M39.8,24.9l0.1-20.2c-4.4,1.8-8.5,4.2-12.4,6.9L27.4,13l-0.2,18.2L39.8,24.9z"/>
	<path class="st0" d="M100.7,71.8l-0.2-38.1l-15.1-7.5l-0.2-21V3.8c-2.3-0.9-4.7-1.6-7.2-2.2l-0.3,31.1l11.6,6.8v25L64.7,76.8v54.5
		c6.5-0.1,12.8-1.2,18.8-3.2l-9.7-5.9l0.6-37L100.7,71.8z"/>
	<path class="st0" d="M61.9,131.3V76.9l-23.7-12V40l11.5-6.8L49.4,1.8L51,1.3c-3,0.6-6,1.5-8.8,2.6v1.8L42,26.5l-14.8,7.4l-0.2,37.9
		l25.7,13.4l0.6,36.8l-9.6,6C49.5,130,55.6,131.1,61.9,131.3z"/>
	<polygon class="st0" points="64.7,74 86.9,63 86.9,40.9 77.8,35.6 76.9,57.7 64.7,63 	"/>
	<path class="st0" d="M17.5,39.3l7.5,2.6l0.4-28.6c-2.8,2.2-5.5,4.6-7.9,7.3V39.3z"/>
	<path class="st0" d="M51.1,120.8l-0.5-19.1l-35.3-18V23.1C5.8,34.6,0,49.4,0,65.7c0,28,17.1,51.9,41.1,61.4L51.1,120.8z"/>
	<path class="st0" d="M112.8,23.8v59.9l-36.2,18.1L76.1,121l10.1,6.2c24.1-9.4,41.4-33.4,41.4-61.5C127.5,49.8,122,35.2,112.8,23.8z
		"/>
	<polygon class="st0" points="110.6,41.7 103.1,44.1 103.1,73.1 76.8,86.7 76.8,99.2 110.6,82.3 	"/>
	<path class="st0" d="M52,1.9l0.9,54.6l9,4V0c-3.4,0.1-6.7,0.5-9.9,1.1V1.9z"/>
	<polygon class="st0" points="49.6,36.1 40.6,41.4 40.6,63.5 61.9,74.1 61.9,63.1 50.5,58.2 	"/>
	<path class="st0" d="M87.7,24.7l12.9,6.4l-0.2-18.3l-0.1-0.8C96.4,9,92.1,6.6,87.6,4.8L87.7,24.7z"/>
</g>
</svg>
