<?xml version="1.0" encoding="utf-8"?>
<!-- Generator: Adobe Illustrator 19.0.0, SVG Export Plug-In . SVG Version: 6.00 Build 0)  -->
<svg version="1.1" id="Capa_1" xmlns="http://www.w3.org/2000/svg" xmlns:xlink="http://www.w3.org/1999/xlink" x="0px" y="0px"
	 viewBox="0 0 204 128" style="enable-background:new 0 0 204 128;" xml:space="preserve">
<style type="text/css">
	.st0{fill:#FFFFFF;}
	.st1{fill-rule:evenodd;clip-rule:evenodd;fill:#FFFFFF;}
</style>
<g id="XMLID_725_">
	<g id="XMLID_768_">
		<path id="XMLID_769_" class="st0" d="M3.8,74.9v24.1h13.8v2.8h-17V74.9H3.8z M35.9,91.3l-5.2-14.3l-6,16.5h0l-2.9,8.1h-3.2
			l9.9-26.8h4.4L43,101.7h-3.2L35.9,91.3L35.9,91.3z M45.7,101.7V88.6h3.1v0h7.1c2.4,0,4.2-0.2,5.2-0.8c1.1-0.5,1.6-2.1,1.6-4.6
			c0-1.9-0.2-3.3-0.7-4.3c-0.5-0.9-1.7-1.4-3.8-1.4c-0.2,0-0.4,0-0.7,0c-0.2,0-0.5,0-0.7,0l-4.7,0v0l-6.5,0v-2.6H57h1.4
			c0.3,0,0.5,0,0.8,0c0.9,0,1.9,0.1,2.8,0.4c1.6,0.4,2.9,1.9,3.4,3.4c0.3,0.9,0.5,1.9,0.6,2.9c0,0.3,0,0.5,0,0.8c0,0.9,0,1.9,0,2.8
			c-0.1,0.8-0.3,1.5-0.5,2.2c-0.2,0.7-0.6,1.3-1.2,1.9c-0.9,0.9-1.9,1.4-2.9,1.6c-1.1,0.2-2.2,0.3-3.4,0.3c-0.5,0-0.9,0-1.4,0h-7.8
			v10.5H45.7z M81.7,90.5l-4.9-13.4L72,90.5l0,0l-1.1,3h0l-2.9,8.1h-3.2l9.9-26.8H79l10.1,26.8h-3.2L81.7,90.5L81.7,90.5z
			 M108.3,92.6h3c0,0.4,0,0.8,0,1.2c0,0.4,0,0.8,0,1.2c0,1.9-0.5,3.5-1.4,4.6c-0.9,1.1-2.5,1.8-4.6,1.9c-1.5,0.1-2.9,0.1-4.4,0.1
			h-3.8c-3.7-0.2-5.9-1.5-6.5-4c-0.7-2.4-1-5-1-7.9c0-2,0-3.9,0-5.9c0-2.5,0.4-4.6,1.4-6.2c0.9-1.6,2.8-2.5,5.6-2.8
			c0.9-0.1,1.8-0.2,2.6-0.3c0.9,0,1.8,0,2.7,0c3.6,0,6,0.5,7.2,1.5c1.1,1,1.8,3.4,2,7l-3,0c0-2-0.2-3.4-0.7-4.4
			c-0.5-0.9-1.9-1.4-4.1-1.4c-1.9,0-3.8,0-5.7,0.2c-2,0.1-3.3,0.7-3.8,1.8c-0.7,1.5-0.8,3.3-0.8,4.9l0,4.3c0,2.3,0,4.5,0.4,6.8
			c0.1,0.8,0.4,1.5,0.7,2.1c0.3,0.6,0.8,1,1.5,1.2c0.7,0.2,1.4,0.4,2.1,0.4c0.6,0,1.2,0.1,1.8,0.1c1.7,0,3.4,0,5.1-0.2
			c1.2-0.1,2.1-0.4,2.8-0.9c0.7-0.5,1-1.3,1.1-2.6c0-0.5,0-1,0-1.5C108.3,93.6,108.3,93.1,108.3,92.6L108.3,92.6z M136.8,74.9v26.8
			h-3.1V89.3h-15.9v12.4h-3V74.9h3v11.9h15.9V74.9H136.8z M140.9,88.7v-1.6c0-3.6,0.4-6.6,1.1-9c0.7-2.4,3.3-3.6,7.7-3.6l1.3,0
			c3.7,0,6.4,0.5,8.3,1.4c1.9,0.9,2.8,3.5,2.8,7.7c0,3.2,0,6.4-0.1,9.5c-0.1,3.3-0.8,5.6-2.1,6.9c-1.3,1.3-3.6,1.9-7,1.9
			c-0.4,0-0.8,0-1.2,0c-0.4,0-0.8,0-1.2,0c-3,0-5.4-0.5-7-1.4c-1.6-0.9-2.5-3.1-2.7-6.5C140.9,92.3,140.9,90.5,140.9,88.7
			L140.9,88.7z M144,88.6l0,4.3c0.1,2.6,0.5,4.4,1.2,5.2c0.8,0.9,2.5,1.3,5.3,1.3c3.1,0,5.2-0.3,6.5-0.9c1.3-0.6,1.9-2.6,2-5.9
			c0-1.5,0-2.9,0-4.4c0-1.5,0-3,0-4.4c0-3.3-0.6-5.2-1.8-5.8c-1.2-0.6-3.2-0.9-6.1-0.9h-1c-2.4,0-4,0.4-4.8,1.1
			c-0.8,0.7-1.3,2.5-1.3,5.4L144,88.6z M180.6,74.9v26.8h-3.1V74.9H180.6z M195.3,77.7v24h-3.1v-24h-8.8v-2.9H204v2.9H195.3z"/>
	</g>
	<g id="XMLID_727_">
		<path id="XMLID_767_" class="st1" d="M121.1,20.1l3.7-1.2v-8.7c-1.2-1.3-2.5-2.6-3.9-3.7L121.1,20.1z"/>
		<path id="XMLID_766_" class="st1" d="M102.7,29.1l4.8-2.1l0.4-26.4V0.5c-1.7-0.3-3.4-0.5-5.2-0.5V29.1z"/>
		<polygon id="XMLID_765_" class="st1" points="95.8,41.8 83.5,35.3 83.5,21.4 79.9,20.2 79.9,39.7 95.8,47.8 		"/>
		<path id="XMLID_752_" class="st1" d="M90.7,12l0-9.7c-2.1,0.9-4.1,2-6,3.3l-0.1,0.7l-0.1,8.8L90.7,12z"/>
		<path id="XMLID_751_" class="st1" d="M120.1,34.7L120,16.3l-7.3-3.6l-0.1-10.1V1.8c-1.1-0.4-2.3-0.8-3.5-1l-0.1,15l5.6,3.3v12
			l-11.9,6v26.3c3.2,0,6.2-0.6,9.1-1.5l-4.7-2.9l0.3-17.8L120.1,34.7z"/>
		<path id="XMLID_749_" class="st1" d="M101.4,63.4V37.1l-11.4-5.8v-12l5.6-3.3L95.3,0.9l0.8-0.2c-1.5,0.3-2.9,0.7-4.3,1.2v0.9
			l-0.1,10.1l-7.1,3.6l-0.1,18.3L97,41.1l0.3,17.7l-4.6,2.9C95.4,62.7,98.3,63.3,101.4,63.4z"/>
		<polygon id="XMLID_743_" class="st1" points="102.7,35.7 113.4,30.4 113.4,19.7 109,17.2 108.6,27.8 102.7,30.4 		"/>
		<path id="XMLID_742_" class="st1" d="M79.9,19l3.6,1.2l0.2-13.8c-1.4,1.1-2.6,2.2-3.8,3.5V19z"/>
		<path id="XMLID_740_" class="st1" d="M96.2,58.3l-0.3-9.2l-17-8.7V11.1c-4.6,5.5-7.4,12.7-7.4,20.5c0,13.5,8.2,25.1,19.8,29.6
			L96.2,58.3z"/>
		<path id="XMLID_732_" class="st1" d="M125.9,11.5v28.9l-17.5,8.7l-0.3,9.3l4.9,3c11.6-4.5,19.9-16.1,19.9-29.7
			C133,24,130.3,17,125.9,11.5z"/>
		<polygon id="XMLID_731_" class="st1" points="124.8,20.1 121.2,21.3 121.2,35.3 108.5,41.8 108.5,47.9 124.8,39.7 		"/>
		<path id="XMLID_730_" class="st1" d="M96.6,0.9L97,27.3l4.4,1.9V0c-1.6,0-3.2,0.2-4.8,0.5V0.9z"/>
		<polygon id="XMLID_729_" class="st1" points="95.5,17.4 91.1,20 91.1,30.6 101.4,35.8 101.4,30.5 95.9,28.1 		"/>
		<path id="XMLID_728_" class="st1" d="M113.8,11.9L120,15l-0.1-8.8l0-0.4c-1.9-1.4-4-2.5-6.1-3.5L113.8,11.9z"/>
	</g>
	<g id="XMLID_80_">
		<path id="XMLID_81_" class="st0" d="M64.7,127.6v-16.4h6c2,0,3.3,0.4,4.2,1.3c0.8,0.8,1.2,1.9,1.2,3.3c0,1.7-0.6,2.9-1.8,3.5
			c-1.2,0.7-2.7,1-4.5,1h-3.5v7.3H64.7z M69.8,119.1c1.6,0,2.8-0.2,3.5-0.7c0.8-0.5,1.2-1.4,1.2-2.7c0-2.1-1.4-3.1-4.2-3.1h-4v6.5
			H69.8z"/>
		<path id="XMLID_84_" class="st0" d="M78.5,127.6v-16.4h1.4v6.3c0.6-0.7,1.2-1.1,1.8-1.5c0.6-0.3,1.3-0.5,2-0.5
			c0.8,0,1.5,0.1,2.1,0.4c0.6,0.3,1.1,0.6,1.4,1.1c0.3,0.5,0.5,0.9,0.6,1.4c0.1,0.4,0.1,0.9,0.1,1.5v7.7h-1.4v-7.7
			c0-1.1-0.2-1.9-0.7-2.4c-0.5-0.5-1.3-0.8-2.3-0.8c-0.8,0-1.5,0.2-2.1,0.7c-0.6,0.4-0.9,0.9-1.1,1.4c-0.2,0.5-0.3,0.9-0.3,1.2
			c0,0.3-0.1,0.7-0.1,1.2v6.4H78.5z"/>
		<path id="XMLID_86_" class="st0" d="M96.7,120.8c0.3,0,0.6-0.1,0.9-0.1c0.4-0.1,0.7-0.1,0.9-0.2c0.2-0.1,0.3-0.3,0.4-0.5
			c0.1-0.2,0.1-0.5,0.1-0.7c0-0.7-0.2-1.3-0.7-1.8c-0.5-0.4-1.2-0.6-2.2-0.6c-1,0-1.8,0.2-2.4,0.6c-0.6,0.4-0.9,1.1-1,2.1h-1.4
			c0-1.3,0.5-2.3,1.4-2.9c0.9-0.6,2.1-1,3.5-1c1.3,0,2.4,0.3,3.1,0.9c0.8,0.6,1.2,1.5,1.2,2.8v6.4c0,0.7,0.2,1.1,0.6,1.1
			c0.2,0,0.5-0.1,0.8-0.2v1.1c-0.2,0.1-0.3,0.1-0.5,0.2c-0.2,0-0.4,0.1-0.5,0.1l-0.6-0.1c-0.4-0.1-0.7-0.2-0.9-0.6
			c-0.2-0.3-0.2-0.7-0.2-1.2c-1.2,1.3-2.6,2-4.4,2c-1.1,0-2-0.3-2.8-0.9c-0.8-0.6-1.1-1.4-1.1-2.5c0-2,1.4-3.2,4.1-3.6L96.7,120.8z
			 M99,121.4c-0.5,0.2-1.1,0.4-1.7,0.5c-0.6,0.1-1.2,0.2-1.8,0.2c-1,0-1.9,0.2-2.5,0.6c-0.6,0.4-0.9,1-0.9,1.9
			c0,0.7,0.2,1.2,0.7,1.6c0.5,0.4,1.1,0.5,1.8,0.5c1.2,0,2.2-0.3,3-0.9c0.8-0.6,1.3-1.4,1.3-2.6V121.4z"/>
		<path id="XMLID_89_" class="st0" d="M105.4,127.6H104v-11.8h1.4v2.2c0.4-0.9,0.9-1.6,1.5-2c0.6-0.4,1.4-0.6,2.4-0.6v1.5
			c-1.4,0-2.4,0.4-3,1.3c-0.6,0.9-0.9,2.1-0.9,3.5V127.6z"/>
		<path id="XMLID_91_" class="st0" d="M112.7,127.6h-1.4v-11.8h1.4v1.8c0.4-0.7,0.9-1.2,1.5-1.6c0.7-0.4,1.4-0.5,2.2-0.5
			c1,0,1.8,0.2,2.3,0.6c0.5,0.4,0.9,1,1.2,1.7c0.8-1.5,2.1-2.3,3.9-2.3c1.5,0,2.4,0.4,2.9,1.3s0.7,2,0.7,3.4v7.5H126v-8.2
			c0-0.9-0.2-1.6-0.6-2.1c-0.4-0.5-1-0.7-2-0.7c-0.5,0-1,0.1-1.5,0.3c-0.4,0.2-0.8,0.5-1.1,0.9c-0.3,0.4-0.5,0.9-0.7,1.5
			c-0.1,0.6-0.2,1.2-0.2,1.8v6.4h-1.4v-8.2c0-0.9-0.2-1.6-0.6-2.1c-0.4-0.5-1-0.7-2-0.7c-0.5,0-1,0.1-1.5,0.3
			c-0.4,0.2-0.8,0.5-1.1,0.9c-0.3,0.4-0.5,0.9-0.7,1.5c-0.1,0.6-0.2,1.2-0.2,1.8V127.6z"/>
		<path id="XMLID_93_" class="st0" d="M136,120.8c0.3,0,0.6-0.1,0.9-0.1c0.4-0.1,0.7-0.1,0.9-0.2c0.2-0.1,0.3-0.3,0.4-0.5
			c0.1-0.2,0.1-0.5,0.1-0.7c0-0.7-0.2-1.3-0.7-1.8s-1.2-0.6-2.2-0.6s-1.8,0.2-2.4,0.6c-0.6,0.4-0.9,1.1-1,2.1h-1.4
			c0-1.3,0.5-2.3,1.4-2.9c0.9-0.6,2.1-1,3.5-1c1.3,0,2.4,0.3,3.1,0.9c0.8,0.6,1.2,1.5,1.2,2.8v6.4c0,0.7,0.2,1.1,0.6,1.1
			c0.2,0,0.5-0.1,0.8-0.2v1.1c-0.2,0.1-0.3,0.1-0.5,0.2c-0.2,0-0.4,0.1-0.5,0.1l-0.6-0.1c-0.4-0.1-0.7-0.2-0.9-0.6
			c-0.2-0.3-0.2-0.7-0.2-1.2c-1.2,1.3-2.6,2-4.4,2c-1.1,0-2-0.3-2.8-0.9c-0.8-0.6-1.1-1.4-1.1-2.5c0-2,1.4-3.2,4.1-3.6L136,120.8z
			 M138.3,121.4c-0.5,0.2-1.1,0.4-1.7,0.5c-0.6,0.1-1.2,0.2-1.8,0.2c-1,0-1.9,0.2-2.5,0.6c-0.6,0.4-0.9,1-0.9,1.9
			c0,0.7,0.2,1.2,0.7,1.6c0.5,0.4,1.1,0.5,1.8,0.5c1.2,0,2.2-0.3,3-0.9c0.8-0.6,1.3-1.4,1.3-2.6V121.4z"/>
	</g>
</g>
</svg>
