<?xml version="1.0" encoding="utf-8"?>
<!-- Generator: Adobe Illustrator 19.0.0, SVG Export Plug-In . SVG Version: 6.00 Build 0)  -->
<svg version="1.1" id="Capa_1" xmlns="http://www.w3.org/2000/svg" xmlns:xlink="http://www.w3.org/1999/xlink" x="0px" y="0px"
	 viewBox="0 0 132.3 54.4" style="enable-background:new 0 0 132.3 54.4;" xml:space="preserve">
<style type="text/css">
	.st0{fill:#FFFFFF;}
</style>
<g id="XMLID_106_">
	<path id="XMLID_107_" class="st0" d="M10.7,13.6c0,0,5.5-1.9,9.2,1.5s7.6,7.6,7.6,7.6s1.5,1.2,0.5,3.4c-1,2.2-4.1,11.5-17.7,12.5
		c0,0-2.8,0-3.3-1c-0.4-1-4.4-10-4.4-10S0.3,22.8,4,18.5L5,14.6c0,0,0.1-1.8,2.5-1.5L10.7,13.6z"/>
	<g id="XMLID_1195_">
		<path id="XMLID_1207_" class="st0" d="M64.7,26.8L50.3,36c0.5,0.8,1.2,1.3,1.9,1.7c0.7,0.4,1.6,0.6,2.6,0.6c1.1,0,2.3-0.3,3.4-0.8
			s2.1-1.3,3.1-2.3l1.9,4.6c-1.1,1.2-2.4,2.1-3.9,2.7c-1.5,0.6-3,1-4.6,1c-3.1,0-5.6-1.1-7.8-3.4c-2.1-2.3-3.2-5.1-3.2-8.3
			c0-3.2,1.1-5.9,3.2-8.1c2.1-2.2,4.8-3.3,7.9-3.3c2,0,3.8,0.6,5.6,1.7C62.1,23.1,63.5,24.7,64.7,26.8z M58.3,26
			c-0.5-0.4-1.1-0.7-1.7-0.9c-0.6-0.2-1.2-0.3-1.9-0.3c-1.7,0-3.1,0.6-4.3,1.7c-1.2,1.2-1.8,2.6-1.8,4.2c0,0.3,0,0.5,0,0.8
			c0,0.3,0.1,0.5,0.1,0.9L58.3,26z"/>
		<path id="XMLID_1204_" class="st0" d="M71.3,1.7v23.4c0.9-1.3,2-2.2,3.4-2.9c1.4-0.7,2.8-1,4.4-1c3,0,5.6,1.1,7.7,3.3
			c2.1,2.2,3.1,4.8,3.1,8c0,3.1-1.1,5.7-3.2,7.8c-2.1,2.1-4.8,3.1-8.1,3.1c-1.8,0-3.4-0.4-4.9-1.1c-1.5-0.7-2.8-1.8-3.8-3.1
			c-0.8-1.1-1.4-2.3-1.7-3.6c-0.3-1.3-0.5-3.3-0.5-6.1v-0.6V2.3L71.3,1.7z M78.8,24.4c-2.1,0-3.9,0.8-5.4,2.3
			c-1.5,1.5-2.2,3.4-2.2,5.5c0,2.2,0.7,4,2.2,5.5c1.5,1.5,3.3,2.3,5.4,2.3c2.1,0,3.9-0.8,5.3-2.3c1.5-1.5,2.2-3.3,2.2-5.4
			c0-2.2-0.7-4.1-2.2-5.6C82.6,25.2,80.9,24.4,78.8,24.4z"/>
		<path id="XMLID_1201_" class="st0" d="M113.5,26.4l-15.6,9.7c0.7,1.2,1.6,2.2,2.6,2.8c1.1,0.7,2.3,1,3.6,1c1.3,0,2.4-0.2,3.5-0.6
			c1.1-0.4,2.1-1,3.1-1.9l0.9,3.2c-1,0.9-2.2,1.6-3.5,2.1c-1.3,0.5-2.7,0.7-4.1,0.7c-3,0-5.5-1.1-7.5-3.3c-2.1-2.2-3.1-4.9-3.1-7.9
			c0-3.2,1-5.8,3.1-7.9c2.1-2.1,4.7-3.2,7.7-3.2c1.8,0,3.5,0.4,5,1.3C110.8,23.2,112.2,24.6,113.5,26.4z M108.8,25.9
			c-0.7-0.6-1.4-1.1-2.2-1.4c-0.8-0.3-1.6-0.4-2.6-0.4c-2.1,0-3.8,0.7-5.3,2.2c-1.5,1.5-2.2,3.3-2.2,5.4c0,0.4,0.1,0.9,0.2,1.6
			c0,0.1,0,0.1,0,0.2L108.8,25.9z"/>
		<path id="XMLID_1198_" class="st0" d="M120.6,1.7v41l-3.6,0.5V2.3L120.6,1.7z"/>
		<path id="XMLID_1196_" class="st0" d="M131,1.7v41l-3.6,0.5V2.3L131,1.7z"/>
	</g>
	<path id="XMLID_1194_" class="st0" d="M2.5,16.4c-0.4-4.2,1.5-6.1,5.7-5.7C8.1,9.9,7.7,9.6,7,9.6c-3.5-0.3-5.9,2.1-5.6,5.6
		C1.5,15.8,1.7,16.3,2.5,16.4z"/>
	<g id="XMLID_1149_">
		<path id="XMLID_1192_" class="st0" d="M49.9,49.1c-0.1-0.3-0.2-0.5-0.3-0.6s-0.4-0.3-0.8-0.3c-0.3,0-0.6,0.1-0.9,0.4
			c-0.3,0.3-0.4,0.7-0.4,1.4c0,0.5,0.1,0.9,0.3,1.3c0.2,0.3,0.5,0.5,1,0.5c0.3,0,0.6-0.1,0.8-0.3c0.2-0.2,0.3-0.4,0.4-0.7H51
			c-0.1,0.6-0.4,1.1-0.7,1.4s-0.9,0.5-1.5,0.5c-0.7,0-1.3-0.2-1.7-0.7c-0.4-0.5-0.7-1.1-0.7-2s0.2-1.6,0.7-2c0.4-0.5,1-0.7,1.7-0.7
			c0.7,0,1.3,0.2,1.7,0.6c0.4,0.4,0.6,0.8,0.6,1.3H49.9z"/>
		<path id="XMLID_1189_" class="st0" d="M52.6,52.6h-1.1l1.9-5.2h1.3l1.8,5.2h-1.2l-0.3-1.1h-1.9L52.6,52.6z M53.2,50.7h1.3
			l-0.6-2.1L53.2,50.7z"/>
		<path id="XMLID_1187_" class="st0" d="M58.2,51.7h2.6v0.9h-3.7v-5.2h1.1V51.7z"/>
		<path id="XMLID_1185_" class="st0" d="M62.5,52.6h-1.1v-5.2h1.1V52.6z"/>
		<path id="XMLID_1179_" class="st0" d="M63.5,47.4h2.3c0.8,0,1.3,0.3,1.6,0.8c0.3,0.5,0.5,1.1,0.5,1.7c0,0.7-0.2,1.3-0.5,1.9
			c-0.3,0.6-0.9,0.8-1.7,0.8h-2.3V47.4z M64.6,51.7h1.1c0.4,0,0.7-0.2,0.9-0.5c0.2-0.3,0.3-0.8,0.3-1.2c0-0.7-0.1-1.1-0.3-1.3
			c-0.2-0.2-0.5-0.3-0.9-0.3h-1V51.7z"/>
		<path id="XMLID_1176_" class="st0" d="M69.5,52.6h-1.1l1.9-5.2h1.3l1.8,5.2h-1.2l-0.3-1.1h-1.9L69.5,52.6z M70.2,50.7h1.3
			l-0.6-2.1L70.2,50.7z"/>
		<path id="XMLID_1173_" class="st0" d="M74,47.4h2.3c0.8,0,1.3,0.3,1.6,0.8c0.3,0.5,0.5,1.1,0.5,1.7c0,0.7-0.2,1.3-0.5,1.9
			c-0.3,0.6-0.9,0.8-1.7,0.8H74V47.4z M75.1,51.7h1.1c0.4,0,0.7-0.2,0.9-0.5c0.2-0.3,0.3-0.8,0.3-1.2c0-0.7-0.1-1.1-0.3-1.3
			c-0.2-0.2-0.5-0.3-0.9-0.3h-1V51.7z"/>
		<path id="XMLID_1171_" class="st0" d="M85.1,48.4h-2.8v1.1h2.5v0.9h-2.5v1.4h2.9v0.9h-4v-5.2h3.8V48.4z"/>
		<path id="XMLID_1169_" class="st0" d="M89.3,47.4h1v5.2h-1.1l-2.1-3.7l0,3.7h-1v-5.2l1.1,0l2.1,3.6L89.3,47.4z"/>
		<path id="XMLID_1166_" class="st0" d="M94.2,52.6H93l1.9-5.2h1.3l1.8,5.2h-1.2l-0.3-1.1h-1.9L94.2,52.6z M94.8,50.7h1.3l-0.6-2.1
			L94.8,50.7z"/>
		<path id="XMLID_1164_" class="st0" d="M100.9,52.6h-1.1v-4.3h-1.6v-0.9h4.2v0.9h-1.6V52.6z"/>
		<path id="XMLID_1162_" class="st0" d="M107,48.4h-2.8v1.1h2.5v0.9h-2.5v1.4h2.9v0.9h-4v-5.2h3.8V48.4z"/>
		<path id="XMLID_1160_" class="st0" d="M111.1,47.4h1v5.2h-1.1l-2.1-3.7l0,3.7h-1v-5.2l1.1,0l2.1,3.6L111.1,47.4z"/>
		<path id="XMLID_1158_" class="st0" d="M116.5,49.1c-0.1-0.3-0.2-0.5-0.3-0.6c-0.2-0.2-0.4-0.3-0.8-0.3c-0.3,0-0.6,0.1-0.9,0.4
			c-0.3,0.3-0.4,0.7-0.4,1.4c0,0.5,0.1,0.9,0.3,1.3c0.2,0.3,0.5,0.5,1,0.5c0.3,0,0.6-0.1,0.8-0.3c0.2-0.2,0.3-0.4,0.4-0.7h1.1
			c-0.1,0.6-0.4,1.1-0.7,1.4c-0.4,0.3-0.9,0.5-1.5,0.5c-0.7,0-1.3-0.2-1.7-0.7c-0.4-0.5-0.7-1.1-0.7-2s0.2-1.6,0.7-2
			c0.4-0.5,1-0.7,1.7-0.7c0.7,0,1.3,0.2,1.7,0.6c0.4,0.4,0.6,0.8,0.6,1.3H116.5z"/>
		<path id="XMLID_1156_" class="st0" d="M119.5,52.6h-1.1v-5.2h1.1V52.6z"/>
		<path id="XMLID_1152_" class="st0" d="M122.8,47.3c0.3,0,0.7,0.1,1.1,0.2c0.4,0.1,0.7,0.4,1,0.8c0.3,0.4,0.4,1,0.4,1.7
			c0,0.7-0.1,1.3-0.4,1.7c-0.3,0.4-0.6,0.7-1,0.8c-0.4,0.1-0.7,0.2-1.1,0.2c-0.3,0-0.7-0.1-1.1-0.2c-0.4-0.1-0.7-0.4-1-0.8
			c-0.3-0.4-0.4-1-0.4-1.7c0-0.7,0.1-1.3,0.4-1.7c0.3-0.4,0.6-0.7,1-0.8C122.1,47.4,122.4,47.3,122.8,47.3z M122.8,51.9
			c0.4,0,0.7-0.1,1-0.4c0.3-0.3,0.4-0.7,0.4-1.4s-0.1-1.1-0.4-1.4c-0.3-0.3-0.6-0.4-1-0.4c-0.4,0-0.7,0.1-1,0.4
			c-0.3,0.3-0.4,0.7-0.4,1.4s0.1,1.1,0.4,1.4C122.1,51.7,122.4,51.9,122.8,51.9z M123.1,46.9h-0.7l0.7-1.1h1.1L123.1,46.9z"/>
		<path id="XMLID_1150_" class="st0" d="M129.3,47.4h1v5.2h-1.1l-2.1-3.7l0,3.7h-1v-5.2l1.1,0l2.1,3.6L129.3,47.4z"/>
	</g>
	<path id="XMLID_1145_" class="st0" d="M8.3,49c0.1-0.5,0.2-0.9,0.3-1.4c13.8,0.1,23.2-6.3,28.2-19.3c0.3,0,0.5,0.1,0.8,0.1
		c0.2,0,0.4,0.1,0.5,0.1c0.3,0,0.7,0.6,0.6,0.9c0,0.2-0.1,0.4-0.1,0.5c-2.7,11.5-17.7,21.7-29.9,20C8.6,49.9,8.2,49.3,8.3,49z"/>
	<path id="XMLID_1144_" class="st0" d="M9,41.8c10.8,0.1,18.3-5,22.2-15.1c2.1,0.1,2.3,1,1.7,2.8c-3.2,8.5-12.7,15-21.8,14.9
		C9.3,44.3,8.4,43.8,9,41.8z"/>
	<path id="XMLID_105_" class="st0" d="M10.7,13.6"/>
	<path id="XMLID_108_" class="st0" d="M9.9,48.4"/>
</g>
</svg>
