<?xml version="1.0" encoding="utf-8"?>
<!-- Generator: Adobe Illustrator 19.0.0, SVG Export Plug-In . SVG Version: 6.00 Build 0)  -->
<svg version="1.1" id="Capa_1" xmlns="http://www.w3.org/2000/svg" xmlns:xlink="http://www.w3.org/1999/xlink" x="0px" y="0px"
	 viewBox="0 0 92.6 42.2" style="enable-background:new 0 0 92.6 42.2;" xml:space="preserve">
<style type="text/css">
	.st0{fill:#FFFFFF;}
</style>
<path id="XMLID_57_" class="st0" d="M18.7,33c-1.1,0-2.1-0.7-2.6-1.8c-1.1-3-1.7-6.2-1.7-9.5c0-3.8,0.8-7.6,2.3-10.9
	c0.6-1.4,2.2-2,3.6-1.4c1.4,0.6,2,2.2,1.4,3.6c-1.2,2.6-1.8,5.6-1.8,8.7c0,2.6,0.5,5.2,1.4,7.6c0.5,1.4-0.2,3-1.6,3.5
	C19.4,32.9,19,33,18.7,33z"/>
<path id="XMLID_56_" class="st0" d="M8.7,41.1c-0.8,0-1.6-0.4-2.2-1c-3.3-4.2-5.3-11.4-5.3-19.3C1.2,13.4,3,6.4,6,2.2
	c0.9-1.2,2.6-1.5,3.8-0.7c1.2,0.9,1.5,2.6,0.7,3.8c-2.3,3.3-3.8,9.3-3.8,15.5c0,6.6,1.6,12.7,4.1,15.9c0.9,1.2,0.7,2.9-0.5,3.9
	C9.9,41,9.3,41.1,8.7,41.1z"/>
<path id="XMLID_55_" class="st0" d="M74.2,33c-0.3,0-0.7-0.1-1-0.2c-1.4-0.5-2.1-2.1-1.6-3.5c0.9-2.4,1.4-4.9,1.4-7.6
	c0-3-0.6-6-1.8-8.7c-0.6-1.4,0-3,1.4-3.6c1.4-0.6,3,0,3.6,1.4c1.5,3.3,2.3,7.1,2.3,10.9c0,3.3-0.6,6.5-1.7,9.5
	C76.3,32.3,75.3,33,74.2,33z"/>
<path id="XMLID_54_" class="st0" d="M84.2,41.1c-0.6,0-1.2-0.2-1.7-0.6c-1.2-0.9-1.4-2.7-0.5-3.9c2.5-3.2,4.1-9.3,4.1-15.9
	c0-6.2-1.4-12.1-3.8-15.5c-0.9-1.2-0.6-3,0.7-3.8c1.2-0.9,3-0.6,3.8,0.7c3,4.3,4.8,11.2,4.8,18.6c0,7.9-2,15.1-5.3,19.3
	C85.8,40.8,85,41.1,84.2,41.1z"/>
<ellipse id="XMLID_53_" class="st0" cx="46.6" cy="21.1" rx="21.2" ry="21.1"/>
</svg>
